<svg xmlns="http://www.w3.org/2000/svg" viewBox="0 0 473.88 136.04"><defs><style>.cls-1,.cls-2{fill:#f2f2f2;}.cls-2{stroke:#f2f2f2;stroke-miterlimit:10;stroke-width:2px;}.cls-3{fill:#114318;}.cls-4{fill:#286832;}.cls-5{fill:#dcc80f;}.cls-6{fill:#ece81c;}.cls-7{fill:#c2000b;}.cls-8{fill:red;}.cls-9{fill:#0d5e55;}.cls-10{fill:#22a48f;}.cls-11{fill:none;}</style></defs><title>semid-web</title><g id="Capa_2" data-name="Capa 2"><g id="Capa_1-2" data-name="Capa 1"><path class="cls-1" d="M210.19,108.28c.17-.25.32-.54.5-.79a.44.44,0,0,1,.65-.15,5.62,5.62,0,0,0,3.07,1.32,1.93,1.93,0,0,0,2.17-1.78c0-1.15-1-1.88-2.9-2.66s-3.49-1.84-3.49-4.07c0-1.5,1.15-3.55,4.2-3.55a6.57,6.57,0,0,1,3.55,1.13.46.46,0,0,1,.11.66l-.48.72a.46.46,0,0,1-.67.2,5.85,5.85,0,0,0-2.59-1c-1.61,0-2.17,1-2.17,1.72,0,1.1.85,1.77,2.44,2.42,2.23.9,4.12,2,4.12,4.3,0,2-1.78,3.62-4.27,3.62a6.29,6.29,0,0,1-4.13-1.51A.41.41,0,0,1,210.19,108.28Z"/><path class="cls-1" d="M223,109.72l5.89-12.91a.45.45,0,0,1,.32-.21h.2a.47.47,0,0,1,.32.21l5.85,12.91a.34.34,0,0,1-.33.5H234a.46.46,0,0,1-.45-.29l-1.18-2.63h-6.28c-.38.89-.78,1.75-1.17,2.63a.47.47,0,0,1-.44.29h-1.2A.34.34,0,0,1,223,109.72Zm8.69-4.07-2.36-5.25h-.1l-2.34,5.25Z"/><path class="cls-1" d="M240.89,97.16a.37.37,0,0,1,.36-.37h1.27a.38.38,0,0,1,.36.37v11.28h5.2a.37.37,0,0,1,.37.36v1a.37.37,0,0,1-.37.37h-6.83a.36.36,0,0,1-.36-.37Z"/><path class="cls-1" d="M253.46,97.16a.38.38,0,0,1,.36-.37h1.29a.37.37,0,0,1,.36.37v7.92a3.21,3.21,0,1,0,6.41,0v-8a.37.37,0,0,1,.36-.37h1.29a.38.38,0,0,1,.36.37v8a5.22,5.22,0,0,1-10.43,0Z"/><path class="cls-1" d="M270.86,97.16a.37.37,0,0,1,.35-.37h4.41a6.72,6.72,0,1,1,0,13.43h-4.41a.37.37,0,0,1-.35-.37Zm4.49,11.24a4.89,4.89,0,0,0,0-9.78h-2.53v9.78Z"/><path class="cls-1" d="M294.37,109.72l5.88-12.91a.47.47,0,0,1,.33-.21h.19a.47.47,0,0,1,.33.21L307,109.72a.34.34,0,0,1-.33.5h-1.21a.45.45,0,0,1-.44-.29l-1.19-2.63h-6.27c-.38.89-.78,1.75-1.17,2.63a.48.48,0,0,1-.44.29h-1.21A.34.34,0,0,1,294.37,109.72Zm8.68-4.07-2.36-5.25h-.09l-2.34,5.25Z"/><path class="cls-1" d="M321.76,98.6h-3.12a.38.38,0,0,1-.37-.37V97.16a.38.38,0,0,1,.37-.37h8.24a.38.38,0,0,1,.37.37v1.07a.38.38,0,0,1-.37.37h-3.12v11.25a.38.38,0,0,1-.37.37h-1.26a.38.38,0,0,1-.37-.37Z"/><path class="cls-1" d="M332.57,97.16a.38.38,0,0,1,.36-.37h1.29a.37.37,0,0,1,.36.37v7.92a3.21,3.21,0,1,0,6.41,0v-8a.37.37,0,0,1,.36-.37h1.29a.38.38,0,0,1,.36.37v8a5.22,5.22,0,0,1-10.43,0Z"/><path class="cls-1" d="M357.6,97.16a.39.39,0,0,1,.37-.37h1.26a.37.37,0,0,1,.37.37v5.35h7V97.16a.37.37,0,0,1,.37-.37h1.26a.39.39,0,0,1,.37.37v12.69a.38.38,0,0,1-.37.37H367a.36.36,0,0,1-.37-.37v-5.54h-7v5.54a.36.36,0,0,1-.37.37H358a.38.38,0,0,1-.37-.37Z"/><path class="cls-1" d="M381.66,96.6a6.91,6.91,0,1,1-6.88,6.93A6.9,6.9,0,0,1,381.66,96.6Zm0,11.89a5,5,0,1,0-5-5A5,5,0,0,0,381.66,108.49Z"/><path class="cls-1" d="M400.66,96.6a6.93,6.93,0,0,1,4.66,1.79.36.36,0,0,1,0,.53c-.29.31-.58.6-.86.91s-.31.15-.5,0a5.09,5.09,0,0,0-3.26-1.31,5,5,0,0,0,0,10,6.67,6.67,0,0,0,2.87-.65v-2.15h-1.88a.34.34,0,0,1-.36-.34V104.2a.35.35,0,0,1,.36-.37h3.49a.37.37,0,0,1,.35.37c0,1.53,0,3.1,0,4.64a.48.48,0,0,1-.15.3,9.59,9.59,0,0,1-4.76,1.27,6.91,6.91,0,1,1,0-13.81Z"/><path class="cls-1" d="M410.2,109.72l5.89-12.91a.45.45,0,0,1,.32-.21h.19a.47.47,0,0,1,.33.21l5.85,12.91a.34.34,0,0,1-.33.5h-1.2a.46.46,0,0,1-.45-.29l-1.19-2.63h-6.27c-.38.89-.78,1.75-1.17,2.63a.47.47,0,0,1-.44.29h-1.2A.34.34,0,0,1,410.2,109.72Zm8.69-4.07-2.36-5.25h-.1l-2.34,5.25Z"/><path class="cls-1" d="M428.12,97.16a.37.37,0,0,1,.36-.37h5.22a4.14,4.14,0,0,1,4.18,4.11,4.26,4.26,0,0,1-2.84,3.89l2.63,4.87a.37.37,0,0,1-.33.56h-1.49a.37.37,0,0,1-.31-.17L433,105h-2.9v4.89a.37.37,0,0,1-.36.37h-1.25a.36.36,0,0,1-.36-.37Zm5.43,6.15a2.33,2.33,0,1,0,0-4.66h-3.42v4.66Z"/><path class="cls-1" d="M254,120.18a.36.36,0,0,1,.36-.36H262a.36.36,0,0,1,.36.36v1.08a.36.36,0,0,1-.36.36h-6.06v3.91h5.12a.39.39,0,0,1,.37.37V127a.38.38,0,0,1-.37.37h-5.12v4.12H262a.36.36,0,0,1,.36.37v1a.36.36,0,0,1-.36.36h-7.67a.36.36,0,0,1-.36-.36Z"/><path class="cls-1" d="M268.67,120a.36.36,0,0,1,.37-.34h.47l8.33,9.62h0v-9.07a.36.36,0,0,1,.36-.36h1.23a.37.37,0,0,1,.36.36v12.91a.35.35,0,0,1-.36.34H279l-8.32-9.89h0v9.34a.36.36,0,0,1-.37.36H269a.37.37,0,0,1-.37-.36Z"/><path class="cls-1" d="M294.42,120.18a.38.38,0,0,1,.37-.36h1.28a.37.37,0,0,1,.37.36v7.92a3.21,3.21,0,1,0,6.4,0v-8a.36.36,0,0,1,.36-.36h1.29a.37.37,0,0,1,.36.36v8.06a5.22,5.22,0,0,1-10.43,0Z"/><path class="cls-1" d="M311.82,120a.36.36,0,0,1,.37-.34h.48l8.32,9.62h0v-9.07a.36.36,0,0,1,.36-.36h1.23a.38.38,0,0,1,.37.36v12.91a.36.36,0,0,1-.37.34h-.5l-8.32-9.89h0v9.34a.36.36,0,0,1-.36.36h-1.21a.38.38,0,0,1-.37-.36Z"/><path class="cls-1" d="M343.69,119.63a6.65,6.65,0,0,1,4.64,1.78.35.35,0,0,1,0,.54l-.84.86a.29.29,0,0,1-.48,0,5.24,5.24,0,0,0-3.32-1.29,5,5,0,0,0,0,10,5.14,5.14,0,0,0,3.3-1.27.35.35,0,0,1,.46,0l.88.86a.37.37,0,0,1,0,.52,6.58,6.58,0,0,1-4.66,1.85,6.9,6.9,0,1,1,0-13.8Z"/><path class="cls-1" d="M354.52,120.18a.36.36,0,0,1,.36-.36h1.27a.37.37,0,0,1,.36.36v11.28h5.2a.36.36,0,0,1,.36.37v1a.36.36,0,0,1-.36.36h-6.83a.36.36,0,0,1-.36-.36Z"/><path class="cls-1" d="M367.51,120.18a.37.37,0,0,1,.36-.36h1.27a.37.37,0,0,1,.36.36v12.7a.37.37,0,0,1-.36.36h-1.27a.37.37,0,0,1-.36-.36Z"/><path class="cls-1" d="M382.59,119.63a6.68,6.68,0,0,1,4.64,1.78.36.36,0,0,1,0,.54l-.85.86c-.13.17-.31.17-.48,0a5.23,5.23,0,0,0-3.31-1.29,5,5,0,0,0,0,10,5.14,5.14,0,0,0,3.3-1.27.35.35,0,0,1,.46,0l.88.86a.37.37,0,0,1,0,.52,6.62,6.62,0,0,1-4.66,1.85,6.9,6.9,0,1,1,0-13.8Z"/><path class="cls-1" d="M393.41,120.28a.45.45,0,0,1,.46-.46H395a.47.47,0,0,1,.46.46v5.31l5.41-5.58a.48.48,0,0,1,.36-.19h1.44a.4.4,0,0,1,.27.69l-5.54,5.64,5.87,6.46a.41.41,0,0,1-.35.63h-1.53a.43.43,0,0,1-.35-.13l-5.58-6.29v6a.47.47,0,0,1-.46.46h-1.11a.45.45,0,0,1-.46-.46Z"/><line class="cls-2" x1="290.81" y1="81.75" x2="357.88" y2="81.75"/><path class="cls-1" d="M190.91,55.23c.7-1,1.32-2.17,2-3.18a1.75,1.75,0,0,1,2.63-.62c.47.38,6.44,5.35,12.41,5.35,5.35,0,8.76-3.26,8.76-7.21,0-4.66-4-7.6-11.71-10.78-7.91-3.34-14.11-7.45-14.11-16.45,0-6,4.65-14.34,17-14.34a26.18,26.18,0,0,1,14.35,4.58,1.84,1.84,0,0,1,.47,2.63c-.62.93-1.32,2-1.94,2.95a1.84,1.84,0,0,1-2.72.77c-.54-.31-6-3.87-10.47-3.87-6.51,0-8.76,4.1-8.76,7,0,4.42,3.41,7.14,9.85,9.78,9,3.64,16.67,7.91,16.67,17.37,0,8.07-7.21,14.65-17.29,14.65a25.16,25.16,0,0,1-16.68-6.12C190.68,57.09,190.13,56.54,190.91,55.23Z"/><path class="cls-1" d="M249.85,10.25a1.47,1.47,0,0,1,1.47-1.48h31a1.47,1.47,0,0,1,1.47,1.48v4.34a1.47,1.47,0,0,1-1.47,1.47h-24.5V31.89h20.7A1.52,1.52,0,0,1,280,33.36V37.7a1.47,1.47,0,0,1-1.48,1.47h-20.7V55.85h24.5a1.47,1.47,0,0,1,1.47,1.47v4.27a1.47,1.47,0,0,1-1.47,1.47h-31a1.47,1.47,0,0,1-1.47-1.47Z"/><path class="cls-1" d="M315.22,9.16A1.56,1.56,0,0,1,316.61,8h1.24a1.57,1.57,0,0,1,1.32.85l16.21,39.63h.31L351.82,8.85A1.5,1.5,0,0,1,353.14,8h1.24a1.57,1.57,0,0,1,1.4,1.16l9.54,52.12a1.32,1.32,0,0,1-1.4,1.78h-5A1.59,1.59,0,0,1,357.41,62l-5.74-34.66h-.23L337.47,63a1.29,1.29,0,0,1-1.31.85h-1.4a1.39,1.39,0,0,1-1.32-.85l-14-35.67h-.3L313.51,62a1.5,1.5,0,0,1-1.39,1.09h-5a1.39,1.39,0,0,1-1.48-1.78Z"/><path class="cls-1" d="M390.52,10.25A1.52,1.52,0,0,1,392,8.77h5.12a1.53,1.53,0,0,1,1.47,1.48V61.59a1.53,1.53,0,0,1-1.47,1.47H392a1.52,1.52,0,0,1-1.47-1.47Z"/><path class="cls-1" d="M427.43,10.25a1.46,1.46,0,0,1,1.4-1.48h17.83a27.15,27.15,0,1,1,0,54.29H428.83a1.46,1.46,0,0,1-1.4-1.47Zm18.15,45.44c11.4,0,19.7-8.37,19.7-19.85s-8.3-19.7-19.7-19.7H435.34V55.69Z"/><path class="cls-3" d="M42.48,70H0V86.42c0,4.2,3.35,7,7.66,6.91l34.82.1v34.89h0V93.55h7.18c5.32,0,16.58,6.84,16.58,21.24V93.55H42.48Z"/><path class="cls-4" d="M49.66,93.55H42.48v34.91c0,4.18,3,7.58,6.73,7.58h17V114.8h0C66.24,100.39,55,93.55,49.66,93.55Z"/><path class="cls-5" d="M66.16,0H49.7c-4.19,0-7,3.35-6.91,7.66l-.1,34.82h-.12v7.18c0,5.32-6.84,16.58-21.23,16.58H43.21l22.95-22Z"/><path class="cls-6" d="M42.57,49.66V42.48H7.67c-4.19,0-7.58,3-7.58,6.73v17H21.34C35.73,66.24,42.57,55,42.57,49.66Z"/><path class="cls-7" d="M136.72,49.62c0-4.2-3.35-7-7.66-6.92l-34.82-.09V7.72h0V42.48H87.06c-5.32,0-16.58-6.83-16.58-21.23V42.66c0,.5,0,1,0,1.5L93.35,66.07h43.37Z"/><path class="cls-8" d="M87.06,42.48h7.18V7.58c0-4.19-3-7.58-6.73-7.58h-17V21.24h0C70.48,35.65,81.74,42.48,87.06,42.48Z"/><path class="cls-9" d="M115.39,69.79H94.24V85.28C95.06,79.65,101.91,69.79,115.39,69.79Z"/><path class="cls-9" d="M94.15,93.55H70.56V136H87c4.19,0,7-3.36,6.91-7.66L94,93.55h.12Z"/><path class="cls-10" d="M94.24,85.28v8.27h34.81c4.19,0,7.58-3,7.58-6.72v-17H115.39C101.91,69.79,95.06,79.65,94.24,85.28Z"/><circle class="cls-5" cx="23.61" cy="25.28" r="11.43" transform="translate(-5.18 6.1) rotate(-13.28)"/><circle class="cls-7" cx="112.82" cy="25.28" r="11.43" transform="translate(-2.79 26.6) rotate(-13.28)"/><circle class="cls-4" cx="23.61" cy="111.39" r="11.43" transform="translate(-24.96 8.4) rotate(-13.28)"/><circle class="cls-10" cx="112.11" cy="111.39" r="11.43" transform="translate(-45.93 111.9) rotate(-45)"/><polygon class="cls-11" points="93.35 66.07 70.53 44.16 68.36 42.07 66.16 44.19 43.21 66.23 42.48 66.92 42.48 69.97 42.48 93.55 66.24 93.55 70.56 93.55 94.15 93.55 94.23 93.55 94.23 85.28 94.23 69.79 94.23 66.92 93.35 66.07"/></g></g></svg>