<svg xmlns="http://www.w3.org/2000/svg" viewBox="0 0 237.99 236.8"><defs><style>.cls-1{fill:#114318;}.cls-2{fill:#286832;}.cls-3{fill:#dcc80f;}.cls-4{fill:#ece81c;}.cls-5{fill:#c2000b;}.cls-6{fill:red;}.cls-7{fill:#0d5e55;}.cls-8{fill:#22a48f;}.cls-9{fill:none;}</style></defs><title>Recurso 2</title><g id="Capa_2" data-name="Capa 2"><g id="Capa_7" data-name="Capa 7"><path class="cls-1" d="M74,121.79H0v28.65c0,7.29,5.84,12.13,13.33,12l60.62.18v.21h12.5c9.26,0,28.86,11.9,28.86,37v-37H74Z"/><path class="cls-2" d="M86.45,162.85H74v60.76c0,7.29,5.24,13.19,11.71,13.19h29.65v-37h0C115.31,174.75,95.71,162.85,86.45,162.85Z"/><path class="cls-3" d="M115.16,0H86.52c-7.3,0-12.14,5.84-12,13.33L74.32,74H74.1v12.5c0,9.26-11.9,28.86-37,28.86H74.4c.28,0,.54,0,.81,0l40-38.36Z"/><path class="cls-4" d="M74.1,86.45V74H13.34C6.06,74,.15,79.19.15,85.66v29.65h37C62.2,115.31,74.1,95.71,74.1,86.45Z"/><path class="cls-5" d="M238,86.37c0-7.3-5.84-12.14-13.33-12L164,74.17V74h-12.5c-9.26,0-28.86-11.9-28.86-37V74.25c0,.88,0,1.74.09,2.61L162.49,115H238Z"/><path class="cls-6" d="M151.54,74H164V13.19C164,5.91,158.8,0,152.33,0H122.68V37h0C122.68,62.05,142.28,74,151.54,74Z"/><path class="cls-7" d="M200.85,121.49H164v27C165.47,138.66,177.39,121.49,200.85,121.49Z"/><path class="cls-7" d="M163.89,162.85H122.83v74h28.64c7.3,0,12.14-5.84,12-13.33l.17-60.62h.22Z"/><path class="cls-8" d="M164,148.45v14.4h60.61c7.28,0,13.19-5.24,13.19-11.71V121.49h-37C177.39,121.49,165.47,138.66,164,148.45Z"/><circle class="cls-3" cx="41.1" cy="44" r="19.9" transform="translate(-9.01 10.62) rotate(-13.28)"/><circle class="cls-5" cx="196.39" cy="44" r="19.9" transform="translate(-4.85 46.3) rotate(-13.28)"/><circle class="cls-2" cx="41.1" cy="193.89" r="19.9" transform="translate(-43.45 14.63) rotate(-13.28)"/><circle class="cls-8" cx="195.15" cy="193.89" r="19.9" transform="translate(-79.94 194.78) rotate(-45)"/><polygon class="cls-9" points="162.49 115.01 122.77 76.86 119 73.24 115.16 76.92 75.21 115.28 73.95 116.49 73.95 121.79 73.95 162.85 115.31 162.85 122.83 162.85 163.88 162.85 164.04 162.85 164.04 148.45 164.04 121.49 164.04 116.49 162.49 115.01"/></g></g></svg>