<svg id="b7741734-8b8f-4ee4-9339-7e00628898b2" data-name="Capa 1" xmlns="http://www.w3.org/2000/svg" viewBox="0 0 237.99 236.8"><title>semid</title><path d="M645.15,374.11h-74v28.64c0,7.3,5.84,12.14,13.33,12l60.62.17v60.73h0V415.16h12.49c9.26,0,28.86,11.91,28.86,37v-37H645.15Z" transform="translate(-571.19 -252.32)" style="fill:#114318"/><path d="M657.64,415.16H645.15v60.77c0,7.28,5.24,13.19,11.7,13.19H686.5v-37h0C686.5,427.07,666.9,415.16,657.64,415.16Z" transform="translate(-571.19 -252.32)" style="fill:#286832"/><path d="M686.35,252.32H657.71c-7.3,0-12.14,5.83-12,13.33l-.17,60.62h-.21v12.49c0,9.26-11.9,28.86-37,28.87H645.6c.27,0,.53,0,.81,0l39.94-38.37Z" transform="translate(-571.19 -252.32)" style="fill:#dcc80f"/><path d="M645.3,338.76V326.27H584.54c-7.29,0-13.19,5.24-13.19,11.7v29.66h37C633.4,367.62,645.3,348,645.3,338.76Z" transform="translate(-571.19 -252.32)" style="fill:#ece81c"/><path d="M809.18,338.68c0-7.3-5.83-12.14-13.33-12l-60.62-.17V265.75h0v60.53H722.74c-9.27,0-28.87-11.9-28.87-37v37.27c0,.87,0,1.74.09,2.61l39.72,38.14h75.5Z" transform="translate(-571.19 -252.32)" style="fill:#c2000b"/><path d="M722.74,326.27h12.49V265.51c0-7.29-5.24-13.19-11.71-13.19H693.87v37h0C693.87,314.37,713.47,326.27,722.74,326.27Z" transform="translate(-571.19 -252.32)" style="fill:red"/><path d="M772.05,373.8H735.23v27C736.66,391,748.59,373.81,772.05,373.8Z" transform="translate(-571.19 -252.32)" style="fill:#0d5e55"/><path d="M735.08,415.16H694v74h28.64c7.3,0,12.14-5.84,12-13.34l.17-60.62h.22Z" transform="translate(-571.19 -252.32)" style="fill:#0d5e55"/><path d="M735.23,400.77v14.39h60.61c7.28,0,13.19-5.24,13.19-11.7V373.8h-37C748.59,373.81,736.66,391,735.23,400.77Z" transform="translate(-571.19 -252.32)" style="fill:#22a48f"/><circle cx="612.29" cy="296.31" r="19.9" transform="translate(-622.89 -103.71) rotate(-13.28)" style="fill:#dcc80f"/><circle cx="767.58" cy="296.31" r="19.9" transform="translate(-618.74 -68.03) rotate(-13.28)" style="fill:#c2000b"/><circle cx="612.29" cy="446.2" r="19.9" transform="translate(-657.33 -99.7) rotate(-13.28)" style="fill:#286832"/><circle cx="766.34" cy="446.2" r="19.9" transform="translate(-662.25 420.26) rotate(-45)" style="fill:#22a48f"/><polygon points="162.49 115.01 122.77 76.86 119 73.24 115.16 76.92 75.21 115.28 73.95 116.49 73.95 121.79 73.95 162.85 115.31 162.85 122.83 162.85 163.88 162.85 164.04 162.85 164.04 148.45 164.04 121.49 164.04 116.49 162.49 115.01" style="fill:none"/></svg>