<svg xmlns="http://www.w3.org/2000/svg" viewBox="0 0 136.72 136.04"><defs><style>.cls-1{fill:#114318;}.cls-2{fill:#286832;}.cls-3{fill:#dcc80f;}.cls-4{fill:#ece81c;}.cls-5{fill:#c2000b;}.cls-6{fill:red;}.cls-7{fill:#0d5e55;}.cls-8{fill:#22a48f;}.cls-9{fill:none;}</style></defs><title>semid_1</title><g id="Capa_2" data-name="Capa 2"><g id="Capa_1-2" data-name="Capa 1"><path class="cls-1" d="M42.48,70H0V86.42c0,4.2,3.35,7,7.66,6.91l34.82.1v34.89h0V93.55h7.18c5.32,0,16.58,6.84,16.58,21.24V93.55H42.48Z"/><path class="cls-2" d="M49.66,93.55H42.48v34.91c0,4.18,3,7.58,6.73,7.58h17V114.8h0C66.24,100.39,55,93.55,49.66,93.55Z"/><path class="cls-3" d="M66.16,0H49.7c-4.19,0-7,3.35-6.91,7.66l-.1,34.82h-.12v7.18c0,5.32-6.84,16.58-21.23,16.58H43.21l22.95-22Z"/><path class="cls-4" d="M42.57,49.66V42.48H7.67c-4.19,0-7.58,3-7.58,6.73v17H21.34C35.73,66.24,42.57,55,42.57,49.66Z"/><path class="cls-5" d="M136.72,49.62c0-4.2-3.35-7-7.66-6.92l-34.82-.09V7.72h0V42.48H87.06c-5.32,0-16.58-6.83-16.58-21.23V42.66c0,.5,0,1,0,1.5L93.35,66.07h43.37Z"/><path class="cls-6" d="M87.06,42.48h7.18V7.58c0-4.19-3-7.58-6.73-7.58h-17V21.24h0C70.48,35.65,81.74,42.48,87.06,42.48Z"/><path class="cls-7" d="M115.39,69.79H94.24V85.28C95.06,79.65,101.91,69.79,115.39,69.79Z"/><path class="cls-7" d="M94.15,93.55H70.56V136H87c4.19,0,7-3.36,6.91-7.66L94,93.55h.12Z"/><path class="cls-8" d="M94.24,85.28v8.27h34.81c4.19,0,7.58-3,7.58-6.72v-17H115.39C101.91,69.79,95.06,79.65,94.24,85.28Z"/><circle class="cls-3" cx="23.61" cy="25.28" r="11.43" transform="translate(-5.18 6.1) rotate(-13.28)"/><circle class="cls-5" cx="112.82" cy="25.28" r="11.43" transform="translate(-2.79 26.6) rotate(-13.28)"/><circle class="cls-2" cx="23.61" cy="111.39" r="11.43" transform="translate(-24.96 8.4) rotate(-13.28)"/><circle class="cls-8" cx="112.11" cy="111.39" r="11.43" transform="translate(-45.93 111.9) rotate(-45)"/><polygon class="cls-9" points="93.35 66.07 70.53 44.16 68.36 42.07 66.16 44.19 43.21 66.23 42.48 66.92 42.48 69.97 42.48 93.55 66.24 93.55 70.56 93.55 94.15 93.55 94.23 93.55 94.23 85.28 94.23 69.79 94.23 66.92 93.35 66.07"/></g></g></svg>